<?xml version="1.0" encoding="utf-8"?>
<svg version="1.1" id="Layer_1" xmlns="http://www.w3.org/2000/svg" xmlns:xlink="http://www.w3.org/1999/xlink" x="0px" y="0px" width="166.2px" height="445.7px"
	 viewBox="0 0 166.2 445.7">
<rect x="90.6" y="378.5" fill="#A7A9AC" width="2.1" height="3.8"/>
<rect x="86.1" y="381.4" fill="#58595B" width="11" height="0.9"/>
<rect x="83.2" y="382.2" fill="#3C2415" width="16.8" height="14.6"/>
<rect x="84" y="368.9" fill="#D1D3D4" stroke="#414042" stroke-width="1.18" width="15.2" height="9.4"/>
<polyline fill="#F1F2F2" points="98.6,369.5 98.6,377.7 91.4,377.7 "/>
<rect x="120.6" y="378.5" fill="#A7A9AC" width="2.1" height="3.8"/>
<rect x="116.1" y="381.4" fill="#58595B" width="11" height="0.9"/>
<rect x="113.2" y="382.2" fill="#3C2415" width="16.8" height="14.6"/>
<rect x="114" y="368.9" fill="#D1D3D4" stroke="#414042" stroke-width="1.18" width="15.2" height="9.4"/>
<polyline fill="#F1F2F2" points="128.6,369.5 128.6,377.7 121.4,377.7 "/>
<rect x="150.6" y="378.5" fill="#A7A9AC" width="2.1" height="3.8"/>
<rect x="146.1" y="381.4" fill="#58595B" width="11" height="0.9"/>
<rect x="143.2" y="382.2" fill="#3C2415" width="16.8" height="14.6"/>
<rect x="144" y="368.9" fill="#D1D3D4" stroke="#414042" stroke-width="1.18" width="15.2" height="9.4"/>
<polyline fill="#F1F2F2" points="158.6,369.5 158.6,377.7 151.2,377.7 "/>
<rect x="59.6" y="378.5" fill="#A7A9AC" width="2.1" height="3.8"/>
<rect x="55.2" y="381.4" fill="#58595B" width="11" height="0.9"/>
<rect x="52.2" y="382.2" fill="#3C2415" width="16.8" height="14.6"/>
<rect x="53" y="368.9" fill="#D1D3D4" stroke="#414042" stroke-width="1.18" width="15.2" height="9.4"/>
<polyline fill="#F1F2F2" points="67.6,369.5 67.6,377.7 60.4,377.7 "/>
<rect x="27.6" y="378.5" fill="#A7A9AC" width="2.1" height="3.8"/>
<rect x="23.2" y="381.4" fill="#58595B" width="11" height="0.9"/>
<rect x="20.3" y="382.2" fill="#3C2415" width="16.8" height="14.6"/>
<rect x="21" y="368.9" fill="#D1D3D4" stroke="#414042" stroke-width="1.18" width="15.2" height="9.4"/>
<polyline fill="#F1F2F2" points="35.6,369.5 35.6,377.7 28.4,377.7 "/>
<rect x="146.5" y="389.1" fill="#939598" width="9" height="6.2"/>
<rect x="117.2" y="389.1" fill="#939598" width="9" height="6.2"/>
<rect x="87.2" y="389.1" fill="#939598" width="9" height="6.2"/>
<rect x="56.2" y="389.1" fill="#939598" width="9" height="6.2"/>
<rect x="24.4" y="389.1" fill="#939598" width="9" height="6.2"/>
<rect x="0.1" y="394.1" fill="#21409A" width="166.1" height="3.6"/>
<rect x="63.7" y="274.2" fill="#B4E2EC" stroke="#414042" width="37.2" height="12.1"/>
<rect x="120" y="293.2" fill="#939598" width="32.1" height="12"/>
<rect x="120" y="299.6" fill="#414042" width="32.1" height="5.6"/>
<rect x="150" y="296.6" fill="#58595B" width="6" height="8.6"/>
<rect x="115.7" y="296.6" fill="#58595B" width="6.7" height="8.6"/>
<rect x="127.2" y="273.9" fill="#7F3F98" stroke="#414042" stroke-width="1.84" width="17.4" height="14.8"/>
<rect x="150.6" y="276.9" fill="#F26522" stroke="#414042" stroke-width="1.09" width="10.3" height="8.8"/>
<rect x="110.1" y="276.9" fill="#21409A" stroke="#414042" stroke-width="1.09" width="10.3" height="8.8"/>
<rect x="68.9" y="296.2" fill="#414042" width="26.6" height="8.3"/>
<rect x="79.9" y="290.9" fill="#7F3F98" width="5.1" height="5.3"/>
<rect x="84.2" y="293" fill="#00A14B" width="3.1" height="3.2"/>
<rect x="16" y="271.6" fill="#B4E2EC" stroke="#58595B" stroke-width="2.58" width="31.3" height="32"/>
<rect x="36.8" y="272.4" fill="#21409A" width="16" height="31.8"/>
<rect x="38.7" y="272.4" fill="#4D5BA8" width="2.4" height="31.8"/>
<rect x="43.1" y="272.4" fill="#4D5BA8" width="2.4" height="31.8"/>
<rect x="48.2" y="272.4" fill="#4D5BA8" width="2.4" height="31.8"/>
<rect x="10.3" y="272.4" fill="#21409A" width="14.9" height="31.8"/>
<rect x="11.9" y="272.4" fill="#4D5BA8" width="2.4" height="31.8"/>
<rect x="16.3" y="272.4" fill="#4D5BA8" width="2.4" height="31.8"/>
<rect x="21.3" y="272.4" fill="#4D5BA8" width="2.4" height="31.8"/>
<rect x="7.3" y="271.7" fill="#414042" width="47.9" height="0.8"/>
<rect x="0.1" y="304.2" fill="#F26522" width="167.1" height="3.6"/>
<rect x="8.7" y="227" fill="#939598" stroke="#414042" width="41.2" height="32.3"/>
<rect x="27.5" y="227.5" fill="#A7A9AC" width="22.2" height="29.9"/>
<rect x="20.3" y="253.8" fill="#7F3F98" width="6.4" height="3.5"/>
<rect x="38.6" y="253.5" fill="#21409A" width="3.6" height="3.8"/>
<rect x="14.1" y="244.7" fill="#7F3F98" width="3.5" height="4.4"/>
<rect x="19.6" y="246.2" fill="#00A14B" width="3.5" height="3"/>
<rect x="32.4" y="247" fill="#21409A" width="4.7" height="2.1"/>
<rect x="22.3" y="228.2" fill="#FFDD17" width="1.6" height="4.3"/>
<rect x="26.3" y="230.5" fill="#21409A" width="3" height="2"/>
<rect x="44.8" y="229.7" fill="#7F3F98" width="3.2" height="2.8"/>
<rect x="32.1" y="236.9" fill="#F26522" width="1.6" height="4"/>
<rect x="35.2" y="238.1" fill="#00A14B" width="3.2" height="2.8"/>
<rect x="9" y="232.4" fill="#414042" width="40.8" height="2.1"/>
<rect x="8.7" y="240.7" fill="#414042" width="41.4" height="2.1"/>
<rect x="8.9" y="249" fill="#414042" width="41" height="2.1"/>
<rect x="8.9" y="257.3" fill="#414042" width="41" height="2.1"/>
<rect x="58.5" y="225.9" fill="#00AEEF" stroke="#414042" stroke-width="0.96" width="23.1" height="10.7"/>
<rect x="130.5" y="225.9" fill="#00AEEF" stroke="#414042" stroke-width="0.96" width="23.1" height="10.7"/>
<rect x="0.1" y="259.4" fill="#00A14B" width="166.4" height="3.6"/>
<polygon fill="#D1D3D4" stroke="#414042" stroke-width="0.8" points="125.6,259.2 125.6,250.8 125.6,245.8
	126.4,245.8 139.8,245.8 140.6,245.8 140.6,250.8 140.6,259.2 "/>
<polygon fill="#F1F2F2" stroke="#414042" stroke-width="0.44" points="127.4,240.4 127.4,243.8 127.4,245.8
	127.9,245.8 138.3,245.8 138.9,245.8 138.9,243.8 138.9,240.4 "/>
<polygon fill="#F1F2F2" stroke="#414042" stroke-width="0.53" points="128.1,256.9 128.1,251.4 128.1,248.1
	128.6,248.1 137.6,248.1 138.1,248.1 138.1,251.4 138.1,256.9 "/>
<polygon fill="#D1D3D4" stroke="#414042" stroke-width="0.8" points="142.4,259.2 142.4,250.8 142.4,245.8
	143.1,245.8 156.6,245.8 157.4,245.8 157.4,250.8 157.4,259.2 "/>
<polygon fill="#F1F2F2" stroke="#414042" stroke-width="0.44" points="144.1,240.4 144.1,243.8 144.1,245.8
	144.7,245.8 155,245.8 155.6,245.8 155.6,243.8 155.6,240.4 "/>
<polygon fill="#F1F2F2" stroke="#414042" stroke-width="0.53" points="144.9,256.9 144.9,251.4 144.9,248.1
	145.4,248.1 154.3,248.1 154.8,248.1 154.8,251.4 154.8,256.9 "/>
<polygon fill="#D1D3D4" stroke="#414042" stroke-width="0.89" points="97.6,259.2 97.6,242.6 97.6,232.7
	98,232.7 106.6,232.7 107.1,232.7 107.1,242.6 107.1,259.2 "/>
<polygon fill="#D1D3D4" stroke="#414042" stroke-width="0.89" points="88.3,259.2 88.3,242.6 88.3,232.7
	88.8,232.7 97.3,232.7 97.8,232.7 97.8,242.6 97.8,259.2 "/>
<rect x="99.5" y="234.9" fill="#F1F2F2" stroke="#414042" stroke-width="0.1" width="5.8" height="0.3"/>
<rect x="99.5" y="235.9" fill="#F1F2F2" stroke="#414042" stroke-width="0.1" width="5.8" height="0.3"/>
<rect x="90.2" y="234.9" fill="#F1F2F2" stroke="#414042" stroke-width="0.1" width="5.8" height="0.3"/>
<rect x="90.2" y="235.9" fill="#F1F2F2" stroke="#414042" stroke-width="0.1" width="5.8" height="0.3"/>
<polygon fill="#231F20" points="72.7,255.1 72.7,256.3 72.7,257 72.7,257 73.6,257 73.6,257 73.6,256.3 73.6,255.1 "/>
<polygon fill="#F1F2F2" stroke="#414042" stroke-width="0.5" points="62.3,255.2 62.3,250.8 62.3,248.2
	62.9,248.2 74.3,248.2 75,248.2 75,250.8 75,255.2 "/>
<polygon fill="#231F20" points="63.7,255.1 63.7,256.3 63.7,257 63.8,257 64.6,257 64.7,257 64.7,256.3 64.7,255.1 "/>
<polygon fill="#BCBEC0" stroke="#414042" stroke-width="0.27" points="62.3,255.3 62.3,253 62.3,251.5
	62.9,251.5 74.3,251.5 75,251.5 75,253 75,255.3 "/>
<circle fill="#231F20" stroke="#414042" stroke-width="1.19" cx="64.2" cy="258" r="1.1"/>
<circle fill="#231F20" stroke="#414042" stroke-width="1.19" cx="73.2" cy="258" r="1.1"/>
<rect x="131.4" y="315.9" fill="#E53F53" stroke="#F1F2F2" stroke-width="2" width="23.1" height="35.1"/>
<circle fill="#414042" cx="149.4" cy="336.5" r="1.5"/>
<rect x="137.7" y="322.3" fill="#8ED8F8" stroke="#F1F2F2" stroke-width="0.47" width="10.5" height="4.4"/>
<rect x="72.7" y="315.9" fill="#E53F53" stroke="#F1F2F2" stroke-width="2" width="23.1" height="35.1"/>
<circle fill="#414042" cx="90.8" cy="336.5" r="1.5"/>
<rect x="79" y="322.3" fill="#8ED8F8" stroke="#F1F2F2" stroke-width="0.47" width="10.5" height="4.4"/>
<rect x="12.4" y="315.9" fill="#E53F53" stroke="#F1F2F2" stroke-width="2" width="23.1" height="35.1"/>
<circle fill="#414042" cx="30.4" cy="336.5" r="1.5"/>
<rect x="18.7" y="322.3" fill="#8ED8F8" stroke="#F1F2F2" stroke-width="0.47" width="10.5" height="4.4"/>
<rect x="46" y="339.7" fill="#262261" width="18.4" height="9.8"/>
<rect x="49" y="318.1" fill="#00AEEF" stroke="#21409A" width="12.2" height="10.2"/>
<circle fill="#FBB040" cx="51.7" cy="321" r="1.1"/>
<rect x="49.5" y="323.7" fill="#F26522" width="11.2" height="4.1"/>
<rect x="101.2" y="339.7" fill="#262261" width="18.4" height="9.8"/>
<rect x="104.2" y="318.1" fill="#F26522" stroke="#21409A" width="12.2" height="10.2"/>
<circle fill="#FBB040" cx="106.9" cy="321" r="1.1"/>
<rect x="104.7" y="323.7" fill="#00AEEF" width="11.2" height="4.1"/>
<rect x="46" y="338.1" fill="#00A14B" width="18.4" height="1.6"/>
<rect x="101.2" y="338.1" fill="#00A14B" width="18.4" height="1.6"/>
<rect x="-0.2" y="349.2" fill="#EC008C" width="166.4" height="3.6"/>
<rect x="0.1" y="124.7" fill="#7F3F98" width="166.2" height="3.6"/>
<rect x="122.2" y="113.5" fill="#3C2415" width="30.8" height="11.5"/>
<rect x="139.6" y="111" fill="#2E3192" width="2.5" height="2.5"/>
<rect x="131.4" y="111" fill="#2E3192" width="2.5" height="2.5"/>
<rect x="123.1" y="111.7" fill="#2E3192" width="7.2" height="1.7"/>
<rect x="142.9" y="111.7" fill="#2E3192" width="7.2" height="1.7"/>
<rect x="120.4" y="91.1" fill="#B4E2EC" stroke="#414042" width="34.3" height="12.8"/>
<rect x="24.5" y="108.4" fill="#808285" width="76" height="1.2"/>
<rect x="6.7" y="91.1" fill="#B4E2EC" stroke="#414042" width="13" height="12.8"/>
<rect x="77.9" y="113.7" fill="#414042" width="2" height="11.6"/>
<rect x="73.6" y="113.1" fill="#E53F53" width="11.5" height="2"/>
<rect x="60.9" y="113.7" fill="#414042" width="2" height="11.6"/>
<rect x="56.5" y="113.1" fill="#E53F53" width="11.5" height="2"/>
<rect x="42.9" y="113.7" fill="#414042" width="2" height="11.6"/>
<rect x="38.5" y="113.1" fill="#E53F53" width="11.5" height="2"/>
<rect x="24.5" y="109.5" fill="#58595B" width="76" height="2.1"/>
<rect x="40.2" y="91.4" fill="#58595B" stroke="#F1F2F2" stroke-width="1.05" width="45.4" height="13.8"/>
<rect x="27.6" y="104.2" fill="#414042" width="70.6" height="1.4"/>
<rect x="113.4" y="116.7" fill="#414042" width="7.3" height="8.3"/>
<rect x="113.4" y="115.2" fill="#E53F53" width="7.3" height="1.5"/>
<rect x="127.3" y="116.7" fill="#414042" width="20.7" height="8.3"/>
<rect x="127.3" y="115.2" fill="#E53F53" width="20.7" height="1.5"/>
<rect x="154.7" y="116.7" fill="#414042" width="7.3" height="8.3"/>
<rect x="154.7" y="115.2" fill="#E53F53" width="7.3" height="1.5"/>
<rect x="32.3" y="98.6" fill="#FFDD17" width="1.9" height="5.5"/>
<rect x="35.2" y="98.6" fill="#ED1C24" width="1.9" height="5.5"/>
<rect x="114.6" y="189.3" fill="#A7A9AC" stroke="#414042" stroke-width="0.87" width="13.9" height="8.6"/>
<polyline fill="#D1D3D4" points="127.8,189.8 127.8,197.3 121.2,197.3 "/>
<rect x="99.1" y="189.3" fill="#A7A9AC" stroke="#414042" stroke-width="0.87" width="13.9" height="8.6"/>
<polyline fill="#D1D3D4" points="112.4,189.8 112.4,197.3 105.8,197.3 "/>
<rect x="114.6" y="178.5" fill="#27AAE1" stroke="#414042" stroke-width="0.87" width="13.9" height="8.6"/>
<polyline fill="#8CC6EC" points="127.8,179 127.8,186.5 121.2,186.5 "/>
<rect x="99.1" y="178.5" fill="#A7A9AC" stroke="#414042" stroke-width="0.87" width="13.9" height="8.6"/>
<polyline fill="#D1D3D4" points="112.4,179 112.4,186.5 105.8,186.5 "/>
<rect x="10.2" y="184.4" fill="#27AAE1" stroke="#414042" stroke-width="0.87" width="20.2" height="12.5"/>
<polyline fill="#8CC6EC" points="29.6,185.2 29.6,196.1 20,196.1 "/>
<rect x="19" y="196.6" fill="#414042" width="0.9" height="13.6"/>
<rect x="19" y="209.4" fill="#414042" width="30.4" height="0.9"/>
<rect x="93.6" y="199.8" fill="#414042" width="39.5" height="15"/>
<rect x="34" y="2.4" fill="#58595B" width="109.3" height="32.8"/>
<rect x="47.8" y="199.8" fill="#414042" width="39.5" height="15"/>
<rect x="0.1" y="214.1" fill="#00A14B" width="166.4" height="3.6"/>
<rect x="142.5" y="181.5" fill="#D1D3D4" stroke="#414042" width="17.3" height="32.2"/>
<rect x="145.4" y="186.1" fill="#F1F2F2" width="11.5" height="9.4"/>
<circle fill="#414042" cx="156.4" cy="200.9" r="1.4"/>
<rect x="126.2" y="60.8" fill="#231F20" width="30.9" height="0.8"/>
<rect x="28.4" y="66" fill="#603913" width="14" height="14.4"/>
<rect x="32.4" y="60.5" fill="#7F3F98" width="6.1" height="5.5"/>
<rect x="9" y="64.6" fill="#603913" width="15.3" height="15.8"/>
<rect x="13.3" y="58.6" fill="#00A14B" width="6.7" height="6"/>
<rect x="56.8" y="66" fill="#3C2415" width="48.6" height="14.4"/>
<rect x="65.6" y="60.5" fill="#F26522" width="6.1" height="5.5"/>
<rect x="79.2" y="60.5" fill="#00A14B" width="6.1" height="5.5"/>
<rect x="92.4" y="60.5" fill="#27AAE1" width="6.1" height="5.5"/>
<rect x="150.9" y="60.5" fill="#0B6C95" width="2" height="13.8"/>
<rect x="148.9" y="60.5" fill="#59AE66" width="2" height="8.2"/>
<rect x="146.9" y="60.5" fill="#F26522" width="2" height="10.9"/>
<rect x="145.2" y="60.5" fill="#FFDD17" width="2" height="12.6"/>
<rect x="137.3" y="60.5" fill="#362861" width="2" height="8.2"/>
<rect x="133.4" y="60.5" fill="#1FB28A" width="2" height="12.6"/>
<rect x="131.7" y="60.5" fill="#9161A8" width="2" height="12.6"/>
<rect x="156.1" y="60.8" fill="#231F20" width="1" height="19.6"/>
<rect x="126.2" y="60.8" fill="#231F20" width="1.1" height="19.6"/>
<rect x="132.6" y="46.8" fill="#B4E2EC" stroke="#414042" width="18.3" height="10"/>
<rect x="57.5" y="47.2" fill="#E5D3E2" stroke="#231F20" width="47.3" height="9.5"/>
<rect x="39.4" y="72.5" fill="#414042" width="7.7" height="8"/>
<rect x="41.6" y="69.5" fill="#FFDD17" width="3.4" height="3"/>
<rect x="5.8" y="73.2" fill="#414042" width="7.1" height="7.3"/>
<rect x="7.8" y="70.4" fill="#27AAE1" width="3.1" height="2.8"/>
<rect x="0.1" y="79.7" fill="#7F3F98" width="166.2" height="3.6"/>
<rect x="109.4" y="47.7" fill="#27AAE1" stroke="#F1F2F2" width="11.3" height="32"/>
<polyline fill="#63B7E6" points="120.1,48.2 120.1,79.2 109.9,79.2 "/>
<rect x="0.1" y="169.2" fill="#00A14B" width="166.4" height="3.6"/>
<circle fill="#F1F2F2" cx="51.9" cy="145.4" r="8.8"/>
<polygon fill="#ED1C24" points="58.9,143.1 54.2,143.1 54.2,138.4 49.5,138.4 49.5,143.1 44.8,143.1 44.8,147.8 49.5,147.8
	49.5,152.5 54.2,152.5 54.2,147.8 58.9,147.8 "/>
<rect x="120" y="137.3" fill="#B4E2EC" stroke="#414042" width="33.8" height="17.3"/>
<rect x="10" y="137.3" fill="#B4E2EC" stroke="#F1F2F2" stroke-width="2.08" width="20.2" height="19.2"/>
<rect x="42.1" y="158.7" fill="#414042" width="20.1" height="10.8"/>
<rect x="115.4" y="160.9" fill="#D1D3D4" width="43.8" height="8.2"/>
<rect x="148.9" y="157.8" fill="#E6E7E8" width="10.3" height="3"/>
<rect x="17.1" y="2.9" fill="#ED1C24" width="6" height="31.8"/>
<rect x="27.2" y="3.6" fill="#ED1C24" width="6" height="31.8"/>
<rect x="37.8" y="3.6" fill="#ED1C24" width="6" height="31.8"/>
<rect x="128.7" y="3.6" fill="#ED1C24" width="6" height="31.8"/>
<rect x="138.7" y="3.6" fill="#ED1C24" width="6" height="31.8"/>
<rect x="11.1" y="3.6" fill="#7F1119" width="6" height="31.8"/>
<rect x="23.1" y="3.6" fill="#7F1119" width="6" height="31.8"/>
<rect x="32.8" y="3.6" fill="#7F1119" width="6" height="31.8"/>
<rect x="134.3" y="3.6" fill="#7F1119" width="6" height="31.8"/>
<rect x="144.2" y="3.6" fill="#7F1119" width="6" height="31.8"/>
<rect x="155.9" y="3.6" fill="#7F1119" width="6" height="31.8"/>
<rect x="149.9" y="3.6" fill="#ED1C24" width="6" height="31.8"/>
<rect x="120.8" y="160.9" fill="#F1F2F2" width="22.4" height="8.2"/>
<rect x="71" y="136.9" fill="#D1D3D4" width="33.5" height="32.2"/>
<rect x="87.7" y="136.9" fill="#808285" width="16.8" height="32.2"/>
<rect x="84.3" y="149.5" fill="#414042" width="0.6" height="6.9"/>
<rect x="90.6" y="149.5" fill="#414042" width="0.6" height="6.9"/>
<rect x="7.8" y="0.1" fill="#414042" width="155.7" height="3.5"/>
<rect x="129.4" y="29.5" fill="#3A393B" width="12.1" height="5.6"/>
<rect x="109.2" y="29.5" fill="#3A393B" width="12.1" height="5.6"/>
<rect x="88.9" y="29.5" fill="#3A393B" width="12.1" height="5.6"/>
<rect x="68.7" y="29.5" fill="#3A393B" width="12.1" height="5.6"/>
<rect x="48.5" y="29.5" fill="#3A393B" width="12.1" height="5.6"/>
<rect x="28.3" y="29.5" fill="#3A393B" width="12.1" height="5.6"/>
<rect x="0.1" y="34.8" fill="#7F3F98" width="166.2" height="3.6"/>
<rect x="123.9" y="405.7" fill="#4D5BA8" width="42" height="40"/>
<polygon fill="#191E4C" points="132.7,442.4 123.9,445.7 123.9,405.7 132.7,405.7 "/>
<polygon fill="#C7C8E5" points="165.9,445.7 123.9,445.7 132.9,442.8 165.9,442.8 "/>
<rect x="132.7" y="433.2" fill="#F1F2F2" width="33.2" height="1.3"/>
<polygon fill="#F1F2F2" points="123.9,436.6 132.7,434.4 132.7,433.1 123.9,435.2 "/>
<rect x="132.7" y="442.3" fill="#231F20" width="33.2" height="0.7"/>
<polygon fill="#231F20" points="123.9,445.6 132.7,443 132.7,442.3 123.9,444.9 "/>
<rect x="137.6" y="409.2" fill="#FFDD17" width="9.4" height="0.8"/>
<rect x="138" y="410.5" fill="#F1F2F2" stroke="#A5C7A3" stroke-width="0.91" width="8.5" height="13.5"/>
<rect x="156.5" y="411.5" fill="#39B54A" width="1.9" height="4.5"/>
<polygon fill="#39B54A" points="154.4,411.6 160.6,411.6 157.5,408.7 "/>
<rect x="156.7" y="417.1" fill="#F26522" width="1.9" height="4.5"/>
<polygon fill="#F26522" points="160.6,421.5 154.4,421.5 157.6,424.4 "/>
<circle fill="#58595B" cx="140.9" cy="413" r="1"/>
<circle fill="#58595B" cx="143.6" cy="413" r="1"/>
<circle fill="#58595B" cx="140.9" cy="415.7" r="1"/>
<circle fill="#58595B" cx="143.6" cy="415.7" r="1"/>
<circle fill="#58595B" cx="140.9" cy="418.5" r="1"/>
<circle fill="#58595B" cx="143.6" cy="418.5" r="1"/>
<circle fill="#58595B" cx="140.9" cy="421.2" r="1"/>
<circle fill="#58595B" cx="143.6" cy="421.2" r="1"/>
<g>
	<path fill="#FFFFFF" d="M102.2,428.9c0-1.2-1.2-2.3-3.2-3.2c0.9-1.2,1.2-2.9,1.2-4c0-4.9-5.2-8.4-11.2-8.4c-2.3,0-4.3,0.3-6.1,1.2
		c-1.7-2.3-4-4-6.9-4c-4.3,0-8.4,3.5-8.4,8.4c0,1.2,0.3,2.3,0.9,3.2c-4.3,0-8.1,3.5-8.1,8.4c0,4.3,3.5,8.4,8.1,8.4
		c0.9,0,1.7,0,2.3-0.3c2,1.2,5.2,2.3,8.4,2.3c4.9,0,9.2-2,10.4-4.3c4-0.3,7.5-1.7,8.4-3.5C100.7,431.5,102.2,430.4,102.2,428.9z"/>
</g>
<g>
	<path fill="#FFFFFF" d="M47.4,409.1c0-2.1-2.4-3.9-6.3-4.5c-1.6-2.7-4.2-4.8-7.5-4.8c-1.2,0-2.4,0.4-3.6,1c-1.6-0.6-3.3-1-5.4-1
		c-6,0-10.7,3.6-10.7,7.8c0,0.4,0,0.4,0,0.6c-2.4,1.2-3.9,2.4-3.9,4.2c0,3.3,6.6,6.3,15,6.3c0.6,0,1,0,1.6,0
		c2.1,1.2,4.8,1.8,8.1,1.8c6.3,0,11.7-3,11.7-6.6c0-0.6,0-1.2-0.4-1.6C46.8,410.8,47.4,410,47.4,409.1z"/>
</g>
<rect x="69.6" y="189.3" fill="#A7A9AC" stroke="#414042" stroke-width="0.87" width="13.9" height="8.6"/>
<polyline fill="#D1D3D4" points="82.8,189.8 82.8,197.3 76.2,197.3 "/>
<rect x="54.1" y="189.3" fill="#A7A9AC" stroke="#414042" stroke-width="0.87" width="13.9" height="8.6"/>
<polyline fill="#D1D3D4" points="67.4,189.8 67.4,197.3 60.8,197.3 "/>
<rect x="69.6" y="178.5" fill="#27AAE1" stroke="#414042" stroke-width="0.87" width="13.9" height="8.6"/>
<polyline fill="#8CC6EC" points="82.8,179 82.8,186.5 76.2,186.5 "/>
<rect x="54.1" y="178.5" fill="#A7A9AC" stroke="#414042" stroke-width="0.87" width="13.9" height="8.6"/>
<polyline fill="#D1D3D4" points="67.4,179 67.4,186.5 60.8,186.5 "/>
</svg>
