<?xml version="1.0" encoding="utf-8"?>
<!-- Generator: Adobe Illustrator 20.1.0, SVG Export Plug-In . SVG Version: 6.00 Build 0)  -->
<svg version="1.1" id="Layer_1" xmlns="http://www.w3.org/2000/svg" xmlns:xlink="http://www.w3.org/1999/xlink" x="0px" y="0px"
	 viewBox="0 0 166.2 397.6" enable-background="new 0 0 166.2 397.6" xml:space="preserve">
<title>tower-graphics-v2</title>
<rect x="94.6" y="338.5" fill="#A7A9AC" width="2.1" height="3.8"/>
<rect x="90.1" y="341.4" fill="#58595B" width="11" height="0.9"/>
<rect x="87.2" y="342.2" fill="#3C2415" width="16.8" height="14.6"/>
<rect x="88" y="328.9" fill="#D1D3D4" stroke="#414042" stroke-width="1.18" stroke-miterlimit="10" width="15.2" height="9.4"/>
<polyline fill="#F1F2F2" points="102.6,329.5 102.6,337.7 95.4,337.7 "/>
<rect x="122.6" y="338.5" fill="#A7A9AC" width="2.1" height="3.8"/>
<rect x="118.1" y="341.4" fill="#58595B" width="11" height="0.9"/>
<rect x="115.2" y="342.2" fill="#3C2415" width="16.8" height="14.6"/>
<rect x="116" y="328.9" fill="#D1D3D4" stroke="#414042" stroke-width="1.18" stroke-miterlimit="10" width="15.2" height="9.4"/>
<polyline fill="#F1F2F2" points="130.6,329.5 130.6,337.7 123.4,337.7 "/>
<rect x="150.6" y="338.5" fill="#A7A9AC" width="2.1" height="3.8"/>
<rect x="146.1" y="341.4" fill="#58595B" width="11" height="0.9"/>
<rect x="143.2" y="342.2" fill="#3C2415" width="16.8" height="14.6"/>
<rect x="144" y="328.9" fill="#D1D3D4" stroke="#414042" stroke-width="1.18" stroke-miterlimit="10" width="15.2" height="9.4"/>
<polyline fill="#F1F2F2" points="158.6,329.5 158.6,337.7 151.2,337.7 "/>
<rect x="66.6" y="338.5" fill="#A7A9AC" width="2.1" height="3.8"/>
<rect x="62.2" y="341.4" fill="#58595B" width="11" height="0.9"/>
<rect x="59.2" y="342.2" fill="#3C2415" width="16.8" height="14.6"/>
<rect x="60" y="328.9" fill="#D1D3D4" stroke="#414042" stroke-width="1.18" stroke-miterlimit="10" width="15.2" height="9.4"/>
<polyline fill="#F1F2F2" points="74.6,329.5 74.6,337.7 67.4,337.7 "/>
<rect x="38.6" y="338.5" fill="#A7A9AC" width="2.1" height="3.8"/>
<rect x="34.2" y="341.4" fill="#58595B" width="11" height="0.9"/>
<rect x="31.3" y="342.2" fill="#3C2415" width="16.8" height="14.6"/>
<rect x="32" y="328.9" fill="#D1D3D4" stroke="#414042" stroke-width="1.18" stroke-miterlimit="10" width="15.2" height="9.4"/>
<polyline fill="#F1F2F2" points="46.6,329.5 46.6,337.7 39.4,337.7 "/>
<rect x="10.6" y="338.5" fill="#A7A9AC" width="2.1" height="3.8"/>
<rect x="6.2" y="341.4" fill="#58595B" width="11" height="0.9"/>
<rect x="3.3" y="342.2" fill="#3C2415" width="16.8" height="14.6"/>
<rect x="4" y="328.9" fill="#D1D3D4" stroke="#414042" stroke-width="1.18" stroke-miterlimit="10" width="15.2" height="9.4"/>
<polyline fill="#F1F2F2" points="18.6,329.5 18.6,337.7 11.4,337.7 "/>
<rect x="146.5" y="349.1" fill="#939598" width="9" height="6.2"/>
<rect x="119.2" y="349.1" fill="#939598" width="9" height="6.2"/>
<rect x="91.2" y="349.1" fill="#939598" width="9" height="6.2"/>
<rect x="63.2" y="349.1" fill="#939598" width="9" height="6.2"/>
<rect x="35.4" y="349.1" fill="#939598" width="9" height="6.2"/>
<rect x="7.2" y="349.1" fill="#939598" width="9" height="6.2"/>
<rect x="0.1" y="354.1" fill="#21409A" width="166.1" height="3.6"/>
<circle fill="#F1F2F2" stroke="#231F20" stroke-width="0.5" stroke-miterlimit="10" cx="82.1" cy="323.5" r="3.8"/>
<line fill="none" stroke="#231F20" stroke-width="0.5" stroke-miterlimit="10" x1="82.1" y1="324.5" x2="82.1" y2="321.9"/>
<line fill="none" stroke="#231F20" stroke-width="0.5" stroke-miterlimit="10" x1="81.1" y1="324.3" x2="84.6" y2="322.9"/>
<rect x="63.7" y="244.2" fill="#B4E2EC" stroke="#414042" stroke-miterlimit="10" width="37.2" height="12.1"/>
<rect x="120" y="263.2" fill="#939598" width="32.1" height="12"/>
<rect x="130.8" y="263.2" fill="#6D6E71" width="0.3" height="12"/>
<rect x="141.4" y="263.2" fill="#6D6E71" width="0.4" height="12"/>
<rect x="120" y="269.6" fill="#414042" width="32.1" height="5.6"/>
<rect x="150" y="266.6" fill="#58595B" width="6" height="8.6"/>
<rect x="115.7" y="266.6" fill="#58595B" width="6.7" height="8.6"/>
<rect x="127.2" y="243.9" fill="#7F3F98" stroke="#414042" stroke-width="1.84" stroke-miterlimit="10" width="17.4" height="14.8"/>
<rect x="130.8" y="247" fill="#00A14B" stroke="#F1F2F2" stroke-width="1.08" stroke-miterlimit="10" width="10.2" height="8.7"/>
<rect x="150.6" y="246.9" fill="#F26522" stroke="#414042" stroke-width="1.09" stroke-miterlimit="10" width="10.3" height="8.8"/>
<rect x="152.7" y="248.7" fill="#00A14B" stroke="#F1F2F2" stroke-width="0.64" stroke-miterlimit="10" width="6.1" height="5.2"/>
<rect x="110.1" y="246.9" fill="#21409A" stroke="#414042" stroke-width="1.09" stroke-miterlimit="10" width="10.3" height="8.8"/>
<rect x="112.3" y="248.7" fill="#00A14B" stroke="#F1F2F2" stroke-width="0.64" stroke-miterlimit="10" width="6.1" height="5.2"/>
<rect x="68.9" y="266.2" fill="#414042" width="26.6" height="8.3"/>
<rect x="79.9" y="260.9" fill="#7F3F98" width="5.1" height="5.3"/>
<rect x="84.2" y="263" fill="#00A14B" width="3.1" height="3.2"/>
<rect x="82.3" y="264.3" fill="#FFDD17" width="1.9" height="2"/>
<rect x="16" y="241.6" fill="#B4E2EC" stroke="#58595B" stroke-width="2.58" stroke-miterlimit="10" width="31.3" height="32"/>
<rect x="37.1" y="242.4" fill="#21409A" width="5.9" height="31.8"/>
<rect x="38.7" y="242.4" fill="#4D5BA8" width="2.4" height="31.8"/>
<rect x="41.4" y="242.4" fill="#21409A" width="5.9" height="31.8"/>
<rect x="43.1" y="242.4" fill="#4D5BA8" width="2.4" height="31.8"/>
<rect x="46.5" y="242.4" fill="#21409A" width="5.9" height="31.8"/>
<rect x="48.2" y="242.4" fill="#4D5BA8" width="2.4" height="31.8"/>
<rect x="10.2" y="242.4" fill="#21409A" width="5.9" height="31.8"/>
<rect x="11.9" y="242.4" fill="#4D5BA8" width="2.4" height="31.8"/>
<rect x="14.6" y="242.4" fill="#21409A" width="5.9" height="31.8"/>
<rect x="16.3" y="242.4" fill="#4D5BA8" width="2.4" height="31.8"/>
<rect x="19.6" y="242.4" fill="#21409A" width="5.9" height="31.8"/>
<rect x="21.3" y="242.4" fill="#4D5BA8" width="2.4" height="31.8"/>
<rect x="7.3" y="241.7" fill="#414042" width="47.9" height="0.8"/>
<rect x="0.1" y="274.2" fill="#F26522" width="167.1" height="3.6"/>
<rect x="8.7" y="202" fill="#939598" stroke="#414042" stroke-miterlimit="10" width="41.2" height="32.3"/>
<rect x="27.5" y="202.5" fill="#A7A9AC" width="22.2" height="29.9"/>
<rect x="13.6" y="231" fill="#00A14B" width="4.5" height="1.4"/>
<rect x="20.3" y="228.8" fill="#7F3F98" width="6.4" height="3.5"/>
<rect x="29.2" y="227.7" fill="#FFDD17" width="3.1" height="4.6"/>
<rect x="33.8" y="231.1" fill="#F26522" width="3.8" height="1.3"/>
<rect x="38.6" y="228.5" fill="#21409A" width="3.6" height="3.8"/>
<rect x="14.1" y="219.7" fill="#7F3F98" width="3.5" height="4.4"/>
<rect x="19.6" y="221.2" fill="#00A14B" width="3.5" height="3"/>
<rect x="24.8" y="222.7" fill="#21409A" width="4" height="1.3"/>
<rect x="32.4" y="222" fill="#21409A" width="4.7" height="2.1"/>
<rect x="38.6" y="219.4" fill="#7F3F98" width="4.1" height="4.7"/>
<rect x="22.3" y="203.2" fill="#FFDD17" width="1.6" height="4.3"/>
<rect x="26.3" y="205.5" fill="#21409A" width="3" height="2"/>
<rect x="37.8" y="203.3" fill="#00A14B" width="1.8" height="4.3"/>
<rect x="40.2" y="204.7" fill="#F26522" width="3.2" height="2.8"/>
<rect x="44.8" y="204.7" fill="#7F3F98" width="3.2" height="2.8"/>
<rect x="11.2" y="213.9" fill="#00A14B" width="6.3" height="1.9"/>
<rect x="19.7" y="213.1" fill="#FFDD17" width="3.2" height="2.8"/>
<rect x="23.7" y="214" fill="#00A14B" width="1.8" height="2"/>
<rect x="32.1" y="211.9" fill="#F26522" width="1.6" height="4"/>
<rect x="35.2" y="213.1" fill="#00A14B" width="3.2" height="2.8"/>
<rect x="9" y="207.4" fill="#414042" width="40.8" height="2.1"/>
<rect x="8.7" y="215.7" fill="#414042" width="41.4" height="2.1"/>
<rect x="8.9" y="224" fill="#414042" width="41" height="2.1"/>
<rect x="8.9" y="232.3" fill="#414042" width="41" height="2.1"/>
<rect x="58.5" y="200.9" fill="#00AEEF" stroke="#414042" stroke-width="0.96" stroke-miterlimit="10" width="23.1" height="10.7"/>
<rect x="60.6" y="202.4" fill="#8ED8F8" stroke="#F1F2F2" stroke-width="0.47" stroke-miterlimit="10" width="19" height="7.7"/>
<rect x="130.5" y="200.9" fill="#00AEEF" stroke="#414042" stroke-width="0.96" stroke-miterlimit="10" width="23.1" height="10.7"/>
<rect x="132.6" y="202.4" fill="#8ED8F8" stroke="#F1F2F2" stroke-width="0.47" stroke-miterlimit="10" width="19" height="7.7"/>
<rect x="0.1" y="234.4" fill="#00A14B" width="166.4" height="3.6"/>
<polygon fill="#D1D3D4" stroke="#414042" stroke-width="0.8" stroke-miterlimit="10" points="125.6,234.2 125.6,225.8 125.6,220.8 
	126.4,220.8 139.8,220.8 140.6,220.8 140.6,225.8 140.6,234.2 "/>
<polygon fill="#F1F2F2" stroke="#414042" stroke-width="0.44" stroke-miterlimit="10" points="127.4,215.4 127.4,218.8 127.4,220.8 
	127.9,220.8 138.3,220.8 138.9,220.8 138.9,218.8 138.9,215.4 "/>
<polygon fill="#F1F2F2" stroke="#414042" stroke-width="0.53" stroke-miterlimit="10" points="128.1,231.9 128.1,226.4 128.1,223.1 
	128.6,223.1 137.6,223.1 138.1,223.1 138.1,226.4 138.1,231.9 "/>
<polygon fill="#D1D3D4" stroke="#414042" stroke-width="0.8" stroke-miterlimit="10" points="142.4,234.2 142.4,225.8 142.4,220.8 
	143.1,220.8 156.6,220.8 157.4,220.8 157.4,225.8 157.4,234.2 "/>
<polygon fill="#F1F2F2" stroke="#414042" stroke-width="0.44" stroke-miterlimit="10" points="144.1,215.4 144.1,218.8 144.1,220.8 
	144.7,220.8 155,220.8 155.6,220.8 155.6,218.8 155.6,215.4 "/>
<polygon fill="#F1F2F2" stroke="#414042" stroke-width="0.53" stroke-miterlimit="10" points="144.9,231.9 144.9,226.4 144.9,223.1 
	145.4,223.1 154.3,223.1 154.8,223.1 154.8,226.4 154.8,231.9 "/>
<polygon fill="#D1D3D4" stroke="#414042" stroke-width="0.89" stroke-miterlimit="10" points="97.6,234.2 97.6,217.6 97.6,207.7 
	98,207.7 106.6,207.7 107.1,207.7 107.1,217.6 107.1,234.2 "/>
<polygon fill="#D1D3D4" stroke="#414042" stroke-width="0.89" stroke-miterlimit="10" points="88.3,234.2 88.3,217.6 88.3,207.7 
	88.8,207.7 97.3,207.7 97.8,207.7 97.8,217.6 97.8,234.2 "/>
<rect x="99.5" y="209.9" fill="#F1F2F2" stroke="#414042" stroke-width="0.1" stroke-miterlimit="10" width="5.8" height="0.3"/>
<rect x="99.5" y="210.9" fill="#F1F2F2" stroke="#414042" stroke-width="0.1" stroke-miterlimit="10" width="5.8" height="0.3"/>
<rect x="99.5" y="211.9" fill="#F1F2F2" stroke="#414042" stroke-width="0.1" stroke-miterlimit="10" width="5.8" height="0.3"/>
<rect x="90.2" y="209.9" fill="#F1F2F2" stroke="#414042" stroke-width="0.1" stroke-miterlimit="10" width="5.8" height="0.3"/>
<rect x="90.2" y="210.9" fill="#F1F2F2" stroke="#414042" stroke-width="0.1" stroke-miterlimit="10" width="5.8" height="0.3"/>
<rect x="90.2" y="211.9" fill="#F1F2F2" stroke="#414042" stroke-width="0.1" stroke-miterlimit="10" width="5.8" height="0.3"/>
<polygon fill="#231F20" points="72.7,230.1 72.7,231.3 72.7,232 72.7,232 73.6,232 73.6,232 73.6,231.3 73.6,230.1 "/>
<polygon fill="#F1F2F2" stroke="#414042" stroke-width="0.5" stroke-miterlimit="10" points="62.3,230.2 62.3,225.8 62.3,223.2 
	62.9,223.2 74.3,223.2 75,223.2 75,225.8 75,230.2 "/>
<polygon fill="#231F20" points="63.7,230.1 63.7,231.3 63.7,232 63.8,232 64.6,232 64.7,232 64.7,231.3 64.7,230.1 "/>
<polygon fill="#BCBEC0" stroke="#414042" stroke-width="0.27" stroke-miterlimit="10" points="62.3,230.2 62.3,228.9 62.3,228.1 
	62.9,228.1 74.3,228.1 75,228.1 75,228.9 75,230.2 "/>
<polygon fill="#BCBEC0" stroke="#414042" stroke-width="0.27" stroke-miterlimit="10" points="62.3,226.9 62.3,225.6 62.3,224.8 
	62.9,224.8 74.3,224.8 75,224.8 75,225.6 75,226.9 "/>
<circle fill="#231F20" stroke="#414042" stroke-width="1.19" stroke-miterlimit="10" cx="64.2" cy="233" r="1.1"/>
<circle fill="#231F20" stroke="#414042" stroke-width="1.19" stroke-miterlimit="10" cx="73.2" cy="233" r="1.1"/>
<rect x="131.4" y="280.9" fill="#E53F53" stroke="#F1F2F2" stroke-width="2" stroke-miterlimit="10" width="23.1" height="35.1"/>
<circle fill="#414042" cx="149.4" cy="301.5" r="1.5"/>
<rect x="137.7" y="287.3" fill="#8ED8F8" stroke="#F1F2F2" stroke-width="0.47" stroke-miterlimit="10" width="10.5" height="4.4"/>
<rect x="72.7" y="280.9" fill="#E53F53" stroke="#F1F2F2" stroke-width="2" stroke-miterlimit="10" width="23.1" height="35.1"/>
<circle fill="#414042" cx="90.8" cy="301.5" r="1.5"/>
<rect x="79" y="287.3" fill="#8ED8F8" stroke="#F1F2F2" stroke-width="0.47" stroke-miterlimit="10" width="10.5" height="4.4"/>
<rect x="12.4" y="280.9" fill="#E53F53" stroke="#F1F2F2" stroke-width="2" stroke-miterlimit="10" width="23.1" height="35.1"/>
<circle fill="#414042" cx="30.4" cy="301.5" r="1.5"/>
<rect x="18.7" y="287.3" fill="#8ED8F8" stroke="#F1F2F2" stroke-width="0.47" stroke-miterlimit="10" width="10.5" height="4.4"/>
<rect x="46" y="304.7" fill="#262261" width="18.4" height="9.8"/>
<rect x="49" y="283.1" fill="#00AEEF" stroke="#21409A" stroke-miterlimit="10" width="12.2" height="10.2"/>
<circle fill="#FBB040" cx="51.7" cy="286" r="1.1"/>
<rect x="49.5" y="288.7" fill="#F26522" width="11.2" height="4.1"/>
<rect x="101.2" y="304.7" fill="#262261" width="18.4" height="9.8"/>
<rect x="104.2" y="283.1" fill="#F26522" stroke="#21409A" stroke-miterlimit="10" width="12.2" height="10.2"/>
<circle fill="#FBB040" cx="106.9" cy="286" r="1.1"/>
<rect x="104.7" y="288.7" fill="#00AEEF" width="11.2" height="4.1"/>
<rect x="46" y="303.1" fill="#00A14B" width="18.4" height="1.6"/>
<rect x="101.2" y="303.1" fill="#00A14B" width="18.4" height="1.6"/>
<rect x="-0.2" y="314.2" fill="#EC008C" width="166.4" height="3.6"/>
<rect x="0.1" y="114.7" fill="#7F3F98" width="166.2" height="3.6"/>
<rect x="122.2" y="103.5" fill="#3C2415" width="30.8" height="11.5"/>
<rect x="139.6" y="101" fill="#2E3192" width="2.5" height="2.5"/>
<rect x="131.4" y="101" fill="#2E3192" width="2.5" height="2.5"/>
<rect x="136.4" y="99.9" fill="#231F20" width="0.2" height="1"/>
<rect x="136.1" y="100.6" fill="#BCBEC0" width="1" height="3"/>
<rect x="136.4" y="99.2" fill="#FBB040" width="0.2" height="0.6"/>
<rect x="138.1" y="98.3" fill="#231F20" width="0.1" height="1.4"/>
<rect x="137.9" y="99.2" fill="#BCBEC0" width="0.7" height="4.3"/>
<rect x="138.1" y="97.3" fill="#FBB040" width="0.1" height="0.9"/>
<rect x="135.2" y="97.6" fill="#231F20" width="0.2" height="1.6"/>
<rect x="134.8" y="98.7" fill="#BCBEC0" width="1" height="4.8"/>
<rect x="135.2" y="96.6" fill="#FBB040" width="0.2" height="1.1"/>
<rect x="123.1" y="101.7" fill="#2E3192" width="7.2" height="1.7"/>
<rect x="142.9" y="101.7" fill="#2E3192" width="7.2" height="1.7"/>
<rect x="149.3" y="81.1" fill="#B4E2EC" stroke="#414042" stroke-miterlimit="10" width="13" height="12.8"/>
<rect x="130.3" y="81.1" fill="#B4E2EC" stroke="#414042" stroke-miterlimit="10" width="13" height="12.8"/>
<rect x="109.8" y="81.1" fill="#B4E2EC" stroke="#414042" stroke-miterlimit="10" width="13" height="12.8"/>
<rect x="24.5" y="98.4" fill="#808285" width="76" height="1.2"/>
<rect x="32.9" y="103.7" fill="#414042" width="2" height="11.6"/>
<rect x="28.5" y="103.1" fill="#E53F53" width="11.5" height="2"/>
<rect x="6.7" y="81.1" fill="#B4E2EC" stroke="#414042" stroke-miterlimit="10" width="13" height="12.8"/>
<rect x="88.9" y="103.7" fill="#414042" width="2" height="11.6"/>
<rect x="84.6" y="103.1" fill="#E53F53" width="11.5" height="2"/>
<rect x="74.9" y="103.7" fill="#414042" width="2" height="11.6"/>
<rect x="70.6" y="103.1" fill="#E53F53" width="11.5" height="2"/>
<rect x="60.9" y="103.7" fill="#414042" width="2" height="11.6"/>
<rect x="56.5" y="103.1" fill="#E53F53" width="11.5" height="2"/>
<rect x="46.9" y="103.7" fill="#414042" width="2" height="11.6"/>
<rect x="42.5" y="103.1" fill="#E53F53" width="11.5" height="2"/>
<rect x="24.5" y="99.5" fill="#58595B" width="76" height="2.1"/>
<rect x="40.2" y="81.4" fill="#58595B" stroke="#F1F2F2" stroke-width="1.05" stroke-miterlimit="10" width="45.4" height="13.8"/>
<rect x="27.6" y="94.2" fill="#414042" width="70.6" height="1.4"/>
<rect x="113.4" y="106.7" fill="#414042" width="7.3" height="8.3"/>
<rect x="113.4" y="105.2" fill="#E53F53" width="7.3" height="1.5"/>
<rect x="124.2" y="106.7" fill="#414042" width="7.3" height="8.3"/>
<rect x="124.2" y="105.2" fill="#E53F53" width="7.3" height="1.5"/>
<rect x="134.1" y="106.7" fill="#414042" width="7.3" height="8.3"/>
<rect x="134.1" y="105.2" fill="#E53F53" width="7.3" height="1.5"/>
<rect x="154.7" y="106.7" fill="#414042" width="7.3" height="8.3"/>
<rect x="154.7" y="105.2" fill="#E53F53" width="7.3" height="1.5"/>
<rect x="144.7" y="106.7" fill="#414042" width="7.3" height="8.3"/>
<rect x="144.7" y="105.2" fill="#E53F53" width="7.3" height="1.5"/>
<rect x="32.3" y="88.6" fill="#FFDD17" width="1.9" height="5.5"/>
<rect x="35.2" y="88.6" fill="#ED1C24" width="1.9" height="5.5"/>
<rect x="107.7" y="170.9" fill="#A7A9AC" stroke="#414042" stroke-width="0.87" stroke-miterlimit="10" width="11.3" height="7"/>
<polyline fill="#D1D3D4" points="118.5,171.3 118.5,177.4 113.1,177.4 "/>
<rect x="120.1" y="170.9" fill="#A7A9AC" stroke="#414042" stroke-width="0.87" stroke-miterlimit="10" width="11.3" height="7"/>
<polyline fill="#D1D3D4" points="131,171.3 131,177.4 125.6,177.4 "/>
<rect x="95.1" y="170.9" fill="#A7A9AC" stroke="#414042" stroke-width="0.87" stroke-miterlimit="10" width="11.3" height="7"/>
<polyline fill="#D1D3D4" points="105.9,171.3 105.9,177.4 100.6,177.4 "/>
<rect x="107.7" y="162.1" fill="#27AAE1" stroke="#414042" stroke-width="0.87" stroke-miterlimit="10" width="11.3" height="7"/>
<polyline fill="#8CC6EC" points="118.5,162.5 118.5,168.6 113.1,168.6 "/>
<rect x="120.1" y="162.1" fill="#A7A9AC" stroke="#414042" stroke-width="0.87" stroke-miterlimit="10" width="11.3" height="7"/>
<polyline fill="#D1D3D4" points="131,162.5 131,168.6 125.6,168.6 "/>
<rect x="95.1" y="162.1" fill="#A7A9AC" stroke="#414042" stroke-width="0.87" stroke-miterlimit="10" width="11.3" height="7"/>
<polyline fill="#D1D3D4" points="105.9,162.5 105.9,168.6 100.6,168.6 "/>
<rect x="10.2" y="164.4" fill="#27AAE1" stroke="#414042" stroke-width="0.87" stroke-miterlimit="10" width="20.2" height="12.5"/>
<polyline fill="#8CC6EC" points="29.6,165.2 29.6,176.1 20,176.1 "/>
<rect x="19" y="176.6" fill="#414042" width="0.9" height="13.6"/>
<rect x="19" y="189.4" fill="#414042" width="30.4" height="0.9"/>
<rect x="93.6" y="179.8" fill="#414042" width="39.5" height="15"/>
<rect x="62" y="170.9" fill="#27AAE1" stroke="#414042" stroke-width="0.87" stroke-miterlimit="10" width="11.3" height="7"/>
<polyline fill="#8CC6EC" points="72.8,171.3 72.8,177.4 67.5,177.4 "/>
<rect x="74.5" y="170.9" fill="#A7A9AC" stroke="#414042" stroke-width="0.87" stroke-miterlimit="10" width="11.3" height="7"/>
<polyline fill="#D1D3D4" points="85.3,171.3 85.3,177.4 79.9,177.4 "/>
<rect x="49.5" y="170.9" fill="#A7A9AC" stroke="#414042" stroke-width="0.87" stroke-miterlimit="10" width="11.3" height="7"/>
<polyline fill="#D1D3D4" points="60.3,171.3 60.3,177.4 54.9,177.4 "/>
<rect x="62" y="162.1" fill="#A7A9AC" stroke="#414042" stroke-width="0.87" stroke-miterlimit="10" width="11.3" height="7"/>
<polyline fill="#D1D3D4" points="72.8,162.5 72.8,168.6 67.5,168.6 "/>
<rect x="74.5" y="162.1" fill="#A7A9AC" stroke="#414042" stroke-width="0.87" stroke-miterlimit="10" width="11.3" height="7"/>
<polyline fill="#D1D3D4" points="85.3,162.5 85.3,168.6 79.9,168.6 "/>
<rect x="49.5" y="162.1" fill="#27AAE1" stroke="#414042" stroke-width="0.87" stroke-miterlimit="10" width="11.3" height="7"/>
<polyline fill="#8CC6EC" points="60.3,162.5 60.3,168.6 54.9,168.6 "/>
<rect x="47.8" y="179.8" fill="#414042" width="39.5" height="15"/>
<rect x="0.1" y="194.1" fill="#00A14B" width="166.4" height="3.6"/>
<rect x="142.5" y="161.5" fill="#D1D3D4" stroke="#414042" stroke-miterlimit="10" width="17.3" height="32.2"/>
<rect x="145.4" y="166.1" fill="#F1F2F2" width="11.5" height="9.4"/>
<circle fill="#414042" cx="156.4" cy="180.9" r="1.4"/>
<rect x="126.2" y="55.8" fill="#231F20" width="30.9" height="0.8"/>
<rect x="28.4" y="61" fill="#603913" width="14" height="14.4"/>
<rect x="32.4" y="55.5" fill="#7F3F98" width="6.1" height="5.5"/>
<rect x="9" y="59.6" fill="#603913" width="15.3" height="15.8"/>
<rect x="13.3" y="53.6" fill="#00A14B" width="6.7" height="6"/>
<rect x="56.8" y="61" fill="#3C2415" width="48.6" height="14.4"/>
<rect x="65.6" y="55.5" fill="#F26522" width="6.1" height="5.5"/>
<rect x="79.2" y="55.5" fill="#00A14B" width="6.1" height="5.5"/>
<rect x="92.4" y="55.5" fill="#27AAE1" width="6.1" height="5.5"/>
<rect x="150.9" y="55.5" fill="#0B6C95" width="2" height="13.8"/>
<rect x="148.9" y="55.5" fill="#59AE66" width="2" height="8.2"/>
<rect x="146.9" y="55.5" fill="#F26522" width="2" height="10.9"/>
<rect x="145.2" y="55.5" fill="#FFDD17" width="2" height="12.6"/>
<rect x="143.3" y="55.5" fill="#7F3F98" width="2" height="12.6"/>
<rect x="141.4" y="55.5" fill="#F287B7" width="2" height="11.2"/>
<rect x="139.3" y="55.5" fill="#0C3748" width="2" height="13.8"/>
<rect x="137.3" y="55.5" fill="#362861" width="2" height="8.2"/>
<rect x="135.3" y="55.5" fill="#A53C23" width="2" height="10.9"/>
<rect x="133.4" y="55.5" fill="#1FB28A" width="2" height="12.6"/>
<rect x="131.7" y="55.5" fill="#9161A8" width="2" height="12.6"/>
<rect x="129.7" y="55.5" fill="#A64C75" width="2" height="11.2"/>
<rect x="156.1" y="55.8" fill="#231F20" width="1" height="19.6"/>
<rect x="126.2" y="55.8" fill="#231F20" width="1.1" height="19.6"/>
<rect x="132.6" y="41.8" fill="#B4E2EC" stroke="#414042" stroke-miterlimit="10" width="18.3" height="10"/>
<rect x="57.5" y="42.2" fill="#E5D3E2" stroke="#231F20" stroke-miterlimit="10" width="47.3" height="9.5"/>
<rect x="39.4" y="67.5" fill="#414042" width="7.7" height="8"/>
<rect x="41.6" y="64.5" fill="#FFDD17" width="3.4" height="3"/>
<rect x="20.5" y="65.9" fill="#414042" width="9.2" height="9.5"/>
<rect x="23.1" y="62.3" fill="#F26522" width="4" height="3.6"/>
<rect x="5.8" y="68.2" fill="#414042" width="7.1" height="7.3"/>
<rect x="7.8" y="65.4" fill="#27AAE1" width="3.1" height="2.8"/>
<rect x="0.1" y="74.7" fill="#7F3F98" width="166.2" height="3.6"/>
<rect x="109.4" y="42.7" fill="#27AAE1" stroke="#F1F2F2" stroke-miterlimit="10" width="11.3" height="32"/>
<rect x="59.2" y="43.6" fill="#E5D3E2" stroke="#EC008C" stroke-width="0.5" stroke-miterlimit="10" width="43.9" height="6.8"/>
<polyline fill="#63B7E6" points="120.1,43.2 120.1,74.2 109.9,74.2 "/>
<rect x="0.1" y="154.2" fill="#00A14B" width="166.4" height="3.6"/>
<circle fill="#F1F2F2" cx="51.9" cy="130.4" r="8.8"/>
<polygon fill="#ED1C24" points="58.9,128.1 54.2,128.1 54.2,123.4 49.5,123.4 49.5,128.1 44.8,128.1 44.8,132.8 49.5,132.8 
	49.5,137.5 54.2,137.5 54.2,132.8 58.9,132.8 "/>
<rect x="120" y="122.3" fill="#B4E2EC" stroke="#414042" stroke-miterlimit="10" width="33.8" height="17.3"/>
<rect x="10" y="122.3" fill="#B4E2EC" stroke="#F1F2F2" stroke-width="2.08" stroke-miterlimit="10" width="20.2" height="19.2"/>
<rect x="42.1" y="143.7" fill="#414042" width="20.1" height="10.8"/>
<rect x="115.4" y="145.9" fill="#D1D3D4" width="43.8" height="8.2"/>
<rect x="148.9" y="142.8" fill="#E6E7E8" width="10.3" height="3"/>
<rect x="115.5" y="145.9" fill="#BCBEC0" width="30.6" height="8.2"/>
<rect x="120.8" y="145.9" fill="#F1F2F2" width="22.4" height="8.2"/>
<rect x="71" y="121.9" fill="#D1D3D4" width="33.5" height="32.2"/>
<rect x="87.7" y="121.9" fill="#808285" width="16.8" height="32.2"/>
<rect x="84.3" y="134.5" fill="#414042" width="0.6" height="6.9"/>
<rect x="90.6" y="134.5" fill="#414042" width="0.6" height="6.9"/>
<rect x="34.5" y="2.4" fill="#58595B" width="109.3" height="32.8"/>
<rect x="13" y="3.2" fill="#9F1D20" width="13.6" height="31.8"/>
<rect x="17.1" y="3.2" fill="#ED1C24" width="5.5" height="31.8"/>
<rect x="23.2" y="3.2" fill="#9F1D20" width="13.6" height="31.8"/>
<rect x="27.3" y="3.2" fill="#ED1C24" width="5.5" height="31.8"/>
<rect x="35" y="3.2" fill="#9F1D20" width="13.6" height="31.8"/>
<rect x="39" y="3.2" fill="#ED1C24" width="5.5" height="31.8"/>
<rect x="123.1" y="3.2" fill="#9F1D20" width="13.6" height="31.8"/>
<rect x="127.2" y="3.2" fill="#ED1C24" width="5.5" height="31.8"/>
<rect x="133.4" y="3.2" fill="#9F1D20" width="13.6" height="31.8"/>
<rect x="137.4" y="3.2" fill="#ED1C24" width="5.5" height="31.8"/>
<rect x="145.2" y="3.2" fill="#9F1D20" width="13.6" height="31.8"/>
<rect x="149.3" y="3.2" fill="#ED1C24" width="5.5" height="31.8"/>
<rect x="7.8" y="0.1" fill="#414042" width="155.7" height="3.5"/>
<rect x="156" y="29.5" fill="#3A393B" width="6.2" height="5.6"/>
<rect x="147.6" y="29.5" fill="#3A393B" width="6.2" height="5.6"/>
<rect x="139.2" y="29.5" fill="#3A393B" width="6.2" height="5.6"/>
<rect x="130.7" y="29.5" fill="#3A393B" width="6.2" height="5.6"/>
<rect x="122.3" y="29.5" fill="#3A393B" width="6.2" height="5.6"/>
<rect x="114" y="29.5" fill="#3A393B" width="6.2" height="5.6"/>
<rect x="105.6" y="29.5" fill="#3A393B" width="6.2" height="5.6"/>
<rect x="97.2" y="29.5" fill="#3A393B" width="6.2" height="5.6"/>
<rect x="88.7" y="29.5" fill="#3A393B" width="6.2" height="5.6"/>
<rect x="80.3" y="29.5" fill="#3A393B" width="6.2" height="5.6"/>
<rect x="72.1" y="29.5" fill="#3A393B" width="6.2" height="5.6"/>
<rect x="63.7" y="29.5" fill="#3A393B" width="6.2" height="5.6"/>
<rect x="55.2" y="29.5" fill="#3A393B" width="6.2" height="5.6"/>
<rect x="46.8" y="29.5" fill="#3A393B" width="6.2" height="5.6"/>
<rect x="38.4" y="29.5" fill="#3A393B" width="6.2" height="5.6"/>
<rect x="30.8" y="29.5" fill="#3A393B" width="6.2" height="5.6"/>
<rect x="22.4" y="29.5" fill="#3A393B" width="6.2" height="5.6"/>
<rect x="13.9" y="29.5" fill="#3A393B" width="6.2" height="5.6"/>
<rect x="5.5" y="29.5" fill="#3A393B" width="6.2" height="5.6"/>
<rect x="0.1" y="34.8" fill="#7F3F98" width="166.2" height="3.6"/>
<rect x="123.9" y="357.7" fill="#4D5BA8" width="42" height="40"/>
<polygon fill="#191E4C" points="132.7,394.4 123.9,397.7 123.9,357.7 132.7,357.7 "/>
<polygon fill="#C7C8E5" points="165.9,397.7 123.9,397.7 132.9,394.8 165.9,394.8 "/>
<rect x="132.7" y="385.2" fill="#F1F2F2" width="33.2" height="1.3"/>
<polygon fill="#F1F2F2" points="123.9,388.6 132.7,386.4 132.7,385.1 123.9,387.2 "/>
<rect x="132.7" y="394.3" fill="#231F20" width="33.2" height="0.7"/>
<polygon fill="#231F20" points="123.9,397.6 132.7,395 132.7,394.3 123.9,396.9 "/>
<rect x="137.6" y="361.2" fill="#FFDD17" width="12.7" height="0.8"/>
<rect x="138" y="362.5" fill="#F1F2F2" stroke="#A5C7A3" stroke-width="0.91" stroke-miterlimit="10" width="11.8" height="13.5"/>
<rect x="156.5" y="363.5" fill="#39B54A" width="1.9" height="4.5"/>
<polygon fill="#39B54A" points="154.4,363.6 160.6,363.6 157.5,360.7 "/>
<rect x="156.7" y="369.1" fill="#F26522" width="1.9" height="4.5"/>
<polygon fill="#F26522" points="160.6,373.5 154.4,373.5 157.6,376.4 "/>
<circle fill="#58595B" cx="141.2" cy="365" r="1"/>
<circle fill="#58595B" cx="143.9" cy="365" r="1"/>
<circle fill="#58595B" cx="146.7" cy="365" r="1"/>
<circle fill="#58595B" cx="141.2" cy="367.6" r="1"/>
<circle fill="#58595B" cx="143.9" cy="367.6" r="1"/>
<circle fill="#58595B" cx="146.7" cy="367.6" r="1"/>
<circle fill="#58595B" cx="141.2" cy="370.4" r="1"/>
<circle fill="#58595B" cx="143.9" cy="370.4" r="1"/>
<circle fill="#58595B" cx="146.7" cy="370.4" r="1"/>
<circle fill="#58595B" cx="141.2" cy="373.1" r="1"/>
<circle fill="#58595B" cx="143.9" cy="373.1" r="1"/>
<circle fill="#58595B" cx="146.7" cy="373.1" r="1"/>
</svg>
