<svg xmlns="http://www.w3.org/2000/svg" width="25" height="346" viewBox="0 0 25 346" version="1"><title>sprites</title><desc>Created with Sketch.</desc><g stroke="none" stroke-width="1" fill="none" fill-rule="evenodd"><path d="M13 0C6 0 1 5 1 12 1 19 6 24 13 24 20 24 25 19 25 12 25 5 20 0 13 0M22 12C22 14 21 16 20 17L8 5C9 4 11 3 13 3 18 3 22 7 22 12M4 12C4 10 5 8 6 7L18 19C17 20 15 21 13 21 8 21 4 17 4 12" fill="#222222"/><g transform="translate(1.000000, 25.000000)"><path d="M12 24C19 24 24 19 24 12 24 10 24 8 23 7 21 3 17 0 12 0 5 0 0 5 0 12 0 19 5 24 12 24Z" fill="#50E3C2"/><g transform="translate(5.200000, 7.600000)" fill="#664E27"><ellipse cx="2" cy="2" rx="2" ry="2"/><ellipse cx="11" cy="2" rx="2" ry="2"/><path d="M12 8C9 10 5 10 2 8 1 7 1 8 1 8 2 10 4 11 7 11 9 11 11 10 12 8 13 8 12 7 12 8"/></g></g><g transform="translate(1.000000, 50.000000)"><circle fill="#FFDD67" cx="12" cy="12" r="12"/><g transform="translate(5.200000, 8.000000)" fill="#664E27"><ellipse cx="2" cy="2" rx="2" ry="2"/><ellipse cx="11" cy="2" rx="2" ry="2"/><path d="M10 10L4 10C3 10 3 9 4 9L10 9C10 9 10 10 10 10"/></g></g><g transform="translate(1.000000, 75.000000)"><circle fill="#EF5350" cx="12" cy="12" r="12"/><g transform="translate(5.200000, 6.800000)" fill="#664E27"><ellipse cx="2" cy="2" rx="2" ry="2"/><ellipse cx="11" cy="2" rx="2" ry="2"/><path d="M2 11C5 8 9 8 12 11 12 11 13 11 12 10 11 8 9 7 7 7 4 7 2 8 1 10 1 11 1 11 2 11"/></g></g><g transform="translate(1.000000, 321.000000)"><path d="M18 11L14 11C13 11 12 12 12 12L12 24 20 24 20 13C20 12 19 11 18 11" fill="#FBBF67"/><path d="M5 13L2 13C1 13 0 13 0 14L0 24 5 24 5 13 5 13Z" fill="#6ADBC6"/><path d="M12 7L9 4C9 4 8 4 8 4L5 7C5 7 5 8 5 8L5 24 12 24 12 8C12 8 12 7 12 7" fill="#D3976E"/><path d="M23 7L23 5C23 5 22 5 22 5L21 5 21 0C21 0 20 0 20 0 20 0 20 0 20 0L20 5 19 5C18 5 18 5 18 5L18 7C17 7 17 8 17 9L17 24 24 24 24 9C24 8 23 7 23 7" fill="#6ADBC6"/></g><g transform="translate(1.000000, 297.000000)"><g fill="#3E4347"><path d="M18 21C18 21 18 22 17 22L7 22C7 22 6 21 6 21L6 14C6 13 7 13 7 13L17 13C18 13 18 13 18 14L18 21"/><circle cx="7" cy="7" r="7"/></g><g transform="translate(1.125000, 1.500000)" fill="#D0D0D0"><ellipse cx="3" cy="2" rx="2" ry="2"/><circle cx="8" cy="2" r="2"/><ellipse cx="9" cy="6" rx="2" ry="2"/><circle cx="6" cy="9" r="2"/><ellipse cx="2" cy="6" rx="2" ry="2"/></g><circle fill="#3E4347" cx="18" cy="8" r="6"/><g transform="translate(13.500000, 3.375000)" fill="#D0D0D0"><circle cx="3" cy="1" r="1"/><circle cx="7" cy="1" r="1"/><ellipse cx="8" cy="5" rx="1" ry="1"/><circle cx="5" cy="8" r="1"/><ellipse cx="2" cy="5" rx="1" ry="1"/></g><g transform="translate(2.250000, 13.125000)" fill="#3E4347"><polygon points="0 2 0 10 4 8 4 4"/><polygon points="19 0 19 4 16 3 16 1"/></g></g><g transform="translate(1.000000, 272.000000)"><path d="M24 2L13 0 4 3 7 8 24 2C24 2 24 2 24 2" fill="#B9B9BF"/><path d="M24 2L7 8 13 18 15 23 24 20C24 20 24 20 24 20L24 3C24 2 24 2 24 2" fill="#898A90"/><path d="M16 23C16 23 15 23 15 23L5 21C4 21 4 21 4 20L4 3C4 3 4 3 5 3L15 5C15 5 16 5 16 5L16 23 16 23Z" fill="#9FA1A6"/><g transform="translate(5.250000, 11.875000)" fill="#3E4347"><path d="M0 1C0 1 0 1 0 1L9 2C9 2 9 3 9 3L9 9C9 9 9 10 9 10L0 8C0 8 0 8 0 7 0 8 0 1 0 1"/></g><path d="M5 4C5 4 5 4 6 4L14 6C14 6 14 6 14 6L14 13C14 13 14 13 14 13L6 11C5 11 5 11 5 11L5 4" fill="#D0D0D0"/><path d="M11 10C11 11 11 11 11 11L9 10C9 10 9 10 9 10L9 9C9 9 9 8 9 8L11 9C11 9 11 9 11 9L11 10" fill="#94989B"/><polygon fill="#42ADE2" points="4 12 13 13 13 21 5 20"/><polygon fill="#FFCE31" points="6 12 13 17 10 20 3 18"/><polygon fill="#83BF4F" points="3 13 11 15 10 20 2 20"/><polygon fill="#ED4C5C" points="1 15 10 15 11 21 3 22"/><polygon fill="#898A90" points="14 21 9 24 9 21 14 19"/><path d="M0 15C0 15 0 15 0 15L9 17C9 17 9 17 9 17L9 23C9 24 9 24 9 24L0 22C0 22 0 22 0 22L0 15" fill="#D0D0D0"/><path d="M6 21C6 21 6 21 5 21L4 21C4 21 3 21 3 21L3 19C3 19 4 19 4 19L5 19C6 19 6 20 6 20L6 21" fill="#94989B"/></g><g transform="translate(1.000000, 251.000000)"><path d="M0 16L0 18C0 19 6 20 12 20 18 20 24 19 24 18L24 16 0 16" fill="#3E4347"/><path d="M2 16L2 18C2 19 7 20 12 20 17 20 22 19 22 18L22 16 2 16" fill="#62696D"/><polygon fill="#C94747" points="24 16 0 16 3 3 21 3"/><ellipse fill="#B23838" cx="12" cy="16" rx="12" ry="2"/><path d="M22 15L20 3 4 3 2 16 2 16C2 17 7 18 12 18 17 18 22 17 22 16L22 15" fill="#FFC7CE" opacity="0"/><ellipse fill="#ED4C5C" cx="12" cy="3" rx="9" ry="2"/><ellipse fill="#FFC7CE" opacity="0" cx="12" cy="9" rx="7" ry="7"/><polygon fill="#FFE6EA" points="18 9 14 8 17 4 13 7 12 3 11 7 7 4 10 8 6 9 10 10 7 14 11 12 12 16 13 12 17 14 14 10"/></g><g transform="translate(2.000000, 226.000000)"><path d="M0 11L0 23 22 23 22 11C22-3 0-3 0 11L0 11Z" fill="#584130"/><path d="M2 12L2 23 20 23 20 12C20-1 2-1 2 12L2 12Z" fill="#A37D64"/><g transform="translate(3.500000, 4.061538)" fill="#584130"><path d="M9 7L15 7C15 3 12 1 9 0L9 7"/><path d="M6 7L6 0C3 1 0 3 0 7L6 7"/><polygon points="9 9 15 9 15 17 9 17"/><polygon points="0 9 6 9 6 17 0 17"/></g></g><g transform="translate(1.000000, 205.000000)"><g fill="#3E4347"><path d="M2 17C2 17 1 18 1 18L0 18C0 18 0 17 0 17L0 0C0 0 0 0 0 0L1 0C1 0 2 0 2 0L2 17"/><path d="M24 15C24 15 24 14 24 14L0 14C0 14 0 15 0 15L0 18C0 18 0 18 0 18L24 18C24 18 24 18 24 18L24 15"/></g><polygon fill="#B0BDC6" points="2 11 10 11 10 14 2 14"/><path d="M9 11C9 11 6 12 3 11 2 11 1 12 1 11 2 10 2 7 1 6 0 5 2 6 3 7 4 11 9 9 9 11" fill="#DAE3EA"/><polygon fill="#FFDD67" points="6 9 6 10 8 11 9 9"/><path d="M6 9C7 9 8 8 8 8 8 9 9 9 9 9 8 10 7 10 6 9L6 9" fill="#EBA352"/><path d="M2 8L5 5C6 6 9 7 8 9 8 9 7 10 6 9L5 10 2 8" fill="#FFDD67"/><path d="M2 6C1 9 3 10 4 10 5 11 6 10 6 10L6 9C6 9 4 9 4 7 4 7 5 6 5 5 5 5 3 5 2 6" fill="#FFBC00"/><path d="M8 7L7 14 24 14C24 14 24 11 23 10 23 10 11 5 8 7Z" fill="#ED4C5C"/></g><g transform="translate(0.000000, 179.000000)"><polygon fill="#C28FEF" points="13 6 15 1 23 4 22 8"/><polygon fill="#FFE62E" points="16 7 19 7 20 3 18 2"/><polygon fill="#42ADE2" points="4 0 4 9 17 8 17 0"/><polygon fill="#0071BC" points="4 0 1 1 1 9 4 9"/><polygon fill="#3E4347" points="3 23 0 21 0 7 3 7"/><g transform="translate(3.428571, 6.571429)" fill="#62727A"><polygon points="0 0 21 0 21 16 0 16"/></g><path d="M10 10L10 15C10 18 12 20 15 20 16 20 18 19 19 18 19 17 19 16 19 15L19 10C19 10 18 10 18 10L18 14 18 16C18 18 17 19 15 19 13 19 11 18 11 16 11 16 11 15 11 14L11 10C11 10 10 10 10 10" fill="#D0D0D0"/></g><g transform="translate(1.000000, 155.000000)"><path d="M24 16C24 21 20 23 12 23 4 23 0 21 0 16 0 9 24 9 24 16" fill="#E7A74F"/><path d="M0 14C0 12 3 9 12 9 22 9 24 12 24 14 24 17 21 20 12 20 4 20 0 17 0 14" fill="#826046"/><path d="M0 12C0 10 3 7 12 7 21 7 24 10 24 12 24 15 20 18 12 18 4 18 0 15 0 12L0 12Z" fill="#68472C"/><path d="M0 9C1 8 3 8 7 10 12 12 13 13 12 14 11 16 9 18 4 16 0 14-1 11 0 9" fill="#EF4D3C"/><path d="M11 13C11 12 12 11 17 10 22 9 23 9 24 10 24 13 23 15 19 16 14 17 11 15 11 13" fill="#EF4D3C"/><polygon fill="#FFE62E" points="3 12 11 19 19 12"/><path d="M23 10C23 10 24 11 23 11 23 12 22 11 22 12 21 12 21 13 21 13 21 13 20 13 19 13 19 13 19 14 18 14 18 14 17 14 16 14 16 14 16 15 15 15 15 15 14 14 14 14 13 14 13 15 12 15 12 15 11 14 11 14 10 14 9 15 9 15 8 15 8 14 8 14 7 14 6 14 6 14 5 14 5 13 5 13 4 13 4 13 3 13 3 13 3 12 2 12 2 11 1 12 1 11 0 11 1 10 1 10L23 10" fill="#8CC63E"/><path d="M24 9C24 11 19 12 12 12 5 12 0 11 0 9 0 4 5 0 12 0 19 0 24 4 24 9L24 9Z" fill="#E7A74F"/></g><g transform="translate(1.000000, 142.000000)"><path d="M12 2C6 2 2 6 2 12L23 12C23 6 18 2 12 2L12 2Z" fill="#ED4C5C"/><g fill="#ED4C5C"><polygon points="22 10 2 10 0 12 24 12"/><circle cx="12" cy="2" r="2"/></g><g transform="translate(9.000000, 3.375000)" fill="#FFFFFF"><polygon points="2 0 4 0 4 6 2 6"/><polygon points="0 2 6 2 6 4 0 4"/></g></g><g transform="translate(1.000000, 118.000000)"><g transform="translate(0.000000, 0.000000)"><path d="M6 21L11 21 11 15 4 15C4 15 4 18 4 18 3 21 6 21 6 21" fill="#68963B"/><path d="M7 13L10 14 6 9 0 9 2 10 0 13C0 14 0 14 0 15L4 20C4 21 5 21 6 21 6 21 3 21 5 17L7 13" fill="#83BF4F"/><path d="M23 12L20 8 15 11 19 17C19 17 21 16 21 16 24 14 23 12 23 12" fill="#68963B"/><path d="M15 15L15 13 12 18 15 24 15 21 19 21C19 21 20 21 20 20L23 15C24 14 23 13 23 12 23 12 24 15 20 15L15 15" fill="#83BF4F"/><path d="M7 2L4 6 9 9 13 3C13 3 11 1 11 1 8-1 7 2 7 2L7 2Z" fill="#68963B"/><path d="M14 7L11 8 18 8 21 3 18 4 16 1C16 0 16 0 15 0L9 0C8 0 7 1 7 2 7 2 9-1 11 3L14 7 40 11" fill="#83BF4F"/></g></g><g transform="translate(1.000000, 100.000000)" fill="#CEEBF8"><path d="M15 0C13 0 11 1 9 3 9 3 9 3 9 3 9 3 9 3 8 3 6 3 3 5 2 7L2 8C2 8 2 8 2 9 1 9 0 11 0 12 0 14 1 16 3 17 4 17 4 17 5 17L18 17C19 17 19 17 20 17 22 16 24 14 24 11 24 9 23 8 21 7 21 6 21 6 21 6L21 6C21 3 18 0 15 0L15 0Z"/></g></g></svg>
